<svg id="Layer_1" height="512" viewBox="0 0 128 128" width="512" xmlns="http://www.w3.org/2000/svg" data-name="Layer 1"><path d="m96.333 18.192h25.244v12h-25.244z" fill="#fb4a59"/><path d="m96.333 36.192h25.244v12h-25.244z" fill="#fb4a59"/><path d="m96.333 54.192h25.244v12h-25.244z" fill="#fb4a59"/><path d="m6.577 6.5h106.154v115h-106.154z" fill="#4e8ed5"/><path d="m75.231 66.192h-31.154v-13.169a9.331 9.331 0 0 1 9.331-9.331h12.492a9.331 9.331 0 0 1 9.331 9.331z" fill="#f2f2f2"/><circle cx="59.654" cy="34.008" fill="#f2f2f2" r="12.815"/><g fill="#12304c"><path d="m88.4 85.083h-57.5a1.75 1.75 0 0 1 0-3.5h57.5a1.75 1.75 0 0 1 0 3.5z"/><path d="m88.4 95.75h-57.5a1.75 1.75 0 0 1 0-3.5h57.5a1.75 1.75 0 0 1 0 3.5z"/><path d="m88.4 106.417h-57.5a1.75 1.75 0 1 1 0-3.5h57.5a1.75 1.75 0 0 1 0 3.5z"/><path d="m12.5 34.789a1.75 1.75 0 0 1 -1.75-1.75v-20.539a1.75 1.75 0 0 1 3.5 0v20.539a1.75 1.75 0 0 1 -1.75 1.75z"/><path d="m72.724 46.423a1.75 1.75 0 0 0 -.5 2.425 7.537 7.537 0 0 1 1.256 4.172v11.42h-27.65v-11.42a7.6 7.6 0 0 1 5.3-7.227 14.521 14.521 0 1 0 -2.784-2.624 11.127 11.127 0 0 0 -6.016 9.851v13.17a1.75 1.75 0 0 0 1.75 1.75h31.15a1.75 1.75 0 0 0 1.75-1.75v-13.17a11.035 11.035 0 0 0 -1.832-6.1 1.751 1.751 0 0 0 -2.424-.497zm-13.07-23.481a11.065 11.065 0 1 1 -11.065 11.066 11.078 11.078 0 0 1 11.065-11.066z"/><path d="m6.577 78.75a1.75 1.75 0 0 0 1.75-1.75v-68.75h64.923a1.75 1.75 0 0 0 0-3.5h-66.673a1.75 1.75 0 0 0 -1.75 1.75v70.5a1.75 1.75 0 0 0 1.75 1.75z"/><path d="m6.577 95.75a1.75 1.75 0 0 0 1.75-1.75v-6.667a1.75 1.75 0 0 0 -3.5 0v6.667a1.75 1.75 0 0 0 1.75 1.75z"/><path d="m121.577 31.942a1.75 1.75 0 0 0 1.75-1.75v-12a1.75 1.75 0 0 0 -1.75-1.75h-7.1v-9.942a1.75 1.75 0 0 0 -1.75-1.75h-27.977a1.75 1.75 0 0 0 0 3.5h26.23v111.5h-102.653v-16.833a1.75 1.75 0 0 0 -3.5 0v18.583a1.75 1.75 0 0 0 1.75 1.75h106.153a1.75 1.75 0 0 0 1.75-1.75v-53.558h7.1a1.75 1.75 0 0 0 1.75-1.75v-12a1.75 1.75 0 0 0 -1.75-1.75h-7.1v-2.5h7.1a1.75 1.75 0 0 0 1.75-1.75v-12a1.75 1.75 0 0 0 -1.75-1.75h-7.1v-2.5zm-1.75-12v8.5h-5.347v-8.5zm0 36v8.5h-5.347v-8.5zm0-18v8.5h-5.347v-8.5z"/></g></svg>