<?xml version="1.0" encoding="iso-8859-1"?>
<!-- Generator: Adobe Illustrator 19.0.0, SVG Export Plug-In . SVG Version: 6.00 Build 0)  -->
<svg version="1.1" id="Capa_1" xmlns="http://www.w3.org/2000/svg" xmlns:xlink="http://www.w3.org/1999/xlink" x="0px" y="0px"
	 viewBox="0 0 58 58" style="enable-background:new 0 0 58 58;" xml:space="preserve">
<g>
	<path d="M52.75,3H5.25C2.355,3,0,5.355,0,8.25v33.5C0,44.644,2.355,47,5.25,47h18.938v6h-7.625c-0.552,0-1,0.447-1,1s0.448,1,1,1
		h8.625h7.625h8.625c0.553,0,1-0.447,1-1s-0.447-1-1-1h-7.625v-6H52.75c2.895,0,5.25-2.355,5.25-5.25V8.25
		C58,5.355,55.644,3,52.75,3z M56,41.75c0,1.792-1.458,3.25-3.25,3.25H32.812c-0.553,0-1,0.447-1,1v7h-5.625v-6h1.391
		c0.552,0,1-0.447,1-1s-0.448-1-1-1H5.25C3.458,45,2,43.542,2,41.75v-7.5h50.14c0.553,0,1-0.447,1-1s-0.447-1-1-1H2v-24
		C2,6.458,3.458,5,5.25,5h47.5C54.542,5,56,6.458,56,8.25V41.75z"/>
	<path d="M29,35.917c-0.552,0-1,0.447-1,1s0.448,1,1,1c0.727,0,1.318,0.592,1.318,1.318c0,0.727-0.591,1.317-1.318,1.317
		s-1.318-0.591-1.318-1.317c0-0.553-0.448-1-1-1c-0.552,0-1,0.447-1,1c0,1.829,1.488,3.317,3.318,3.317s3.318-1.488,3.318-3.317
		C32.318,37.405,30.83,35.917,29,35.917z"/>
	<path d="M30.521,6.375h-3.042c-0.552,0-1,0.447-1,1s0.448,1,1,1h3.042c0.553,0,1-0.447,1-1S31.074,6.375,30.521,6.375z"/>
</g>
<g>
</g>
<g>
</g>
<g>
</g>
<g>
</g>
<g>
</g>
<g>
</g>
<g>
</g>
<g>
</g>
<g>
</g>
<g>
</g>
<g>
</g>
<g>
</g>
<g>
</g>
<g>
</g>
<g>
</g>
</svg>
