<?xml version="1.0" encoding="iso-8859-1"?>
<!-- Generator: Adobe Illustrator 19.0.0, SVG Export Plug-In . SVG Version: 6.00 Build 0)  -->
<svg version="1.1" id="Capa_1" xmlns="http://www.w3.org/2000/svg" xmlns:xlink="http://www.w3.org/1999/xlink" x="0px" y="0px"
	 viewBox="0 0 41.686 41.686" style="enable-background:new 0 0 41.686 41.686;" xml:space="preserve">
<g>
	<path d="M41.685,1c0-0.552-0.448-1-1-1H24.334c-0.404,0-0.769,0.244-0.924,0.617c-0.155,0.374-0.069,0.804,0.217,1.09l7.468,7.469
		l-8.375,8.375c-0.391,0.391-0.391,1.023,0,1.414c0.195,0.195,0.451,0.293,0.707,0.293c0.256,0,0.512-0.098,0.707-0.293l9.083-9.082
		c0.391-0.391,0.391-1.023,0-1.414L26.749,2h12.937l0,12.937l-1.784-1.784c-0.391-0.391-1.024-0.391-1.414,0
		c-0.391,0.391-0.391,1.024,0,1.414l3.491,3.491c0.286,0.286,0.715,0.371,1.09,0.217c0.373-0.155,0.617-0.52,0.617-0.924L41.685,1z"
		/>
	<path d="M17.551,22.72l-9.083,9.083c-0.391,0.391-0.391,1.023,0,1.414l6.468,6.469H2l0-12.937l1.784,1.784
		c0.391,0.391,1.023,0.391,1.414,0c0.391-0.391,0.391-1.023,0-1.414l-3.491-3.491c-0.287-0.287-0.717-0.372-1.09-0.217
		C0.244,23.565,0,23.93,0,24.334l0.001,16.351c0,0.552,0.448,1,1,1h16.351c0.404,0,0.769-0.244,0.924-0.617
		c0.155-0.374,0.069-0.804-0.217-1.09L10.59,32.51l8.375-8.375c0.391-0.391,0.391-1.024,0-1.414S17.942,22.33,17.551,22.72z"/>
</g>
<g>
</g>
<g>
</g>
<g>
</g>
<g>
</g>
<g>
</g>
<g>
</g>
<g>
</g>
<g>
</g>
<g>
</g>
<g>
</g>
<g>
</g>
<g>
</g>
<g>
</g>
<g>
</g>
<g>
</g>
</svg>
