<svg id="Calque_1" data-name="Calque 1" xmlns="http://www.w3.org/2000/svg" viewBox="0 0 595.28 841.89"><defs><style>.cls-1,.cls-2{fill:#fff;}.cls-1{stroke:#406cb3;stroke-width:6px;}.cls-1,.cls-3,.cls-4{stroke-miterlimit:10;}.cls-3,.cls-4{fill:none;stroke:#fff;}.cls-3{stroke-width:3px;}.cls-4{stroke-width:14px;}</style></defs><title>RB LOGO</title><path class="cls-1" d="M229.44,615.22v-154H216.85q-21.14,0-30.71,4.15T168,480.45q-8.55,10.95-32.42,54.49L91.4,615.22H18.53l36.74-72q22.15-43.28,35-60a152.67,152.67,0,0,1,32.47-30.83q-38.25-6.8-59-33.22T42.94,349.45q0-34.22,13.59-58.77T91.27,256.2q21.14-9.94,70.47-9.94H290.34v369Zm0-306.54H181.62q-41,0-49.58,2.77a35.93,35.93,0,0,0-19.13,14.72q-7,10.7-7,28.31,0,18.37,7,29.45t18.37,14.72q11.33,3.65,52.85,3.65h45.3Z"/><path class="cls-1" d="M415.64,552.8H384.22V454.4h49.42q39.34,0,52.07,4.39a39.31,39.31,0,0,1,20.42,16.07,44.35,44.35,0,0,1,6,14.18,81.45,81.45,0,0,1,60.46,53.87,137.09,137.09,0,0,0,4.18-34.65q0-33.22-15.21-56.37t-42.1-32.72q19-10.32,30.83-31.84t11.88-48.2q0-28.94-13.86-51.85t-34-32q-20.16-9.06-69.79-9.06H323.31v369H428.75a81.32,81.32,0,0,1-13.11-62.41ZM384.22,307.67h35.24q48.32,0,58.51,2.52t17.37,12.71q7.17,10.19,7.17,26.55,0,18.37-8.81,29.07t-24.41,13.21q-8.56,1.26-44.8,1.26H384.22Z"/><polygon class="cls-2" points="464.85 533.9 522.33 557.06 485.03 590.93 464.85 533.9"/><line class="cls-3" x1="529.49" y1="604.3" x2="496.1" y2="567.52"/><circle class="cls-4" cx="492.18" cy="565.55" r="73.02"/></svg>