<?xml version="1.0" encoding="iso-8859-1"?>
<!-- Generator: Adobe Illustrator 19.0.0, SVG Export Plug-In . SVG Version: 6.00 Build 0)  -->
<svg version="1.1" id="Capa_1" xmlns="http://www.w3.org/2000/svg" xmlns:xlink="http://www.w3.org/1999/xlink" x="0px" y="0px"
	 viewBox="0 0 41.686 41.686" style="enable-background:new 0 0 41.686 41.686;" xml:space="preserve">
<g>
	<path d="M41.392,0.293c-0.391-0.391-1.023-0.391-1.414,0l-9.082,9.083c-0.391,0.391-0.391,1.023,0,1.414l6.468,6.468H24.427V4.321
		l1.784,1.784c0.391,0.391,1.023,0.391,1.414,0c0.391-0.391,0.391-1.023,0-1.414L24.134,1.2c-0.287-0.286-0.716-0.372-1.09-0.217
		c-0.374,0.155-0.617,0.52-0.617,0.924v16.351c0,0.552,0.448,1,1,1h16.351c0.404,0,0.769-0.244,0.924-0.617
		c0.155-0.374,0.069-0.804-0.217-1.09l-7.468-7.468l8.375-8.376C41.783,1.316,41.783,0.684,41.392,0.293z"/>
	<path d="M18.258,22.427H1.907c-0.404,0-0.769,0.244-0.924,0.617c-0.155,0.374-0.069,0.804,0.217,1.09l7.469,7.468l-8.376,8.376
		c-0.391,0.391-0.391,1.023,0,1.414C0.489,41.588,0.745,41.686,1,41.686c0.256,0,0.512-0.098,0.707-0.293l9.082-9.083
		c0.188-0.188,0.293-0.442,0.293-0.707c0-0.265-0.106-0.52-0.293-0.707l-6.468-6.468h12.936v12.937l-1.784-1.784
		c-0.391-0.391-1.023-0.391-1.414,0c-0.391,0.391-0.391,1.023,0,1.414l3.491,3.491c0.286,0.286,0.715,0.37,1.09,0.217
		c0.374-0.155,0.617-0.52,0.617-0.924V23.427C19.258,22.875,18.811,22.427,18.258,22.427z"/>
</g>
<g>
</g>
<g>
</g>
<g>
</g>
<g>
</g>
<g>
</g>
<g>
</g>
<g>
</g>
<g>
</g>
<g>
</g>
<g>
</g>
<g>
</g>
<g>
</g>
<g>
</g>
<g>
</g>
<g>
</g>
</svg>
