<?xml version="1.0" encoding="utf-8"?>
<!-- Generator: Adobe Illustrator 18.0.0, SVG Export Plug-In . SVG Version: 6.00 Build 0)  -->
<!DOCTYPE svg PUBLIC "-//W3C//DTD SVG 1.1//EN" "http://www.w3.org/Graphics/SVG/1.1/DTD/svg11.dtd">
<svg version="1.1" id="Layer_1" xmlns="http://www.w3.org/2000/svg" xmlns:xlink="http://www.w3.org/1999/xlink" x="0px" y="0px"
	 viewBox="0 0 512 512" enable-background="new 0 0 512 512" xml:space="preserve">
<g>
	<g>
		<g>
			<g>
				<path d="M283.3,204.5c0,40.8,0,81.6,0,122.5c0,47.9,0,95.8,0,143.6c0,10-7.9,18.3-17.8,19.1c-1.6,0.1-3.2,0-4.7,0
					c-8.4,0-16.8,0-25.2,0c-30.4,0-60.7,0-91.1,0c-27.3,0-54.6,0-81.9,0c-4.6,0-9.2,0-13.8,0c-10,0-18.3-7.9-19.1-17.8
					c-0.1-1.6,0-3.2,0-4.8c0-54.5,0-109,0-163.5c0-32.9,0-65.7,0-98.6c0-53.3,0-106.5,0-159.8c0-11.3,7.3-21.1,19.3-21.1
					c5.6,0,11.2,0,16.9,0c28.2,0,56.4,0,84.6,0c29.7,0,59.5,0,89.2,0c7.5,0,15,0,22.6,0c11.6,0,21,7.6,21,19.7c0,25.6,0,51.2,0,76.7
					c0,9.7,15,9.7,15,0c0-24.4,0-48.9,0-73.3c0-5.6-0.3-11.1-2.4-16.4c-4.3-11-14.1-19.1-25.7-21.2c-5.8-1-12-0.6-17.8-0.6
					c-57.4,0-114.8,0-172.2,0c-9,0-17.9,0-26.9,0c-12,0-23.4,2.9-31.2,12.9c-6.6,8.4-7.5,17.8-7.5,27.9c0,9.8,0,19.7,0,29.5
					c0,56.5,0,113,0,169.5c0,39,0,78.1,0,117.1c0,28.6,0,57.3,0,85.9c0,6,0,12,0,18c0,18.8,15.3,34.5,34.2,34.5c49.5,0,99,0,148.5,0
					c21.5,0,42.9,0,64.4,0c15.8,0,28.7-8.1,34.6-23c2.9-7.5,1.9-17.1,1.9-25c0-46,0-92,0-138c0-38.1,0-76.2,0-114.3
					C298.3,194.8,283.3,194.8,283.3,204.5L283.3,204.5z"/>
			</g>
		</g>
		<g>
			<g>
				<path d="M15.6,260.8c3.7,8.2,7.3,15.1,15.1,20.3c9.3,6.2,21.5,2.2,29.7,10c5.7,5.5,4.5,13.8,4.5,21c0,10,1.9,18.3,8.2,26.4
					c15.3,19.5,46.8,14.6,58.6-5.7c4.6-8,4.2-16.9,4.2-25.7c0-8.9,4.5-16.6,13.1-19.8c9.2-3.4,19.8,0.1,25.1,8.4
					c3.3,5.1,2.8,11,2.8,16.8c0,11.3,0,22.7,0,34c0,12.3,0,24.5,0,36.8c0,24.4,25.8,40.5,48.1,32.3c13-4.8,21.1-16.1,22.8-29.6
					c0.9-6.8-0.9-14,0.5-20.8c1-5.1,4.9-9.7,9.7-11.7c5.6-2.3,11.9-1.3,17.7-3.1c12.4-3.8,18.7-13.9,22.3-25.5
					c2.9-9.3-11.6-13.2-14.5-4c-2.6,8.4-7,15.3-16.7,16.1c-5.6,0.4-10.7,0.8-15.9,3.3c-5.6,2.7-10,6.8-13.4,11.9
					c-9.7,14.4,1.7,34-12.1,46.2c-7.1,6.2-19,5.7-26.1,0c-5.9-4.7-7.4-11-7.4-18.2c0-11.7,0-23.4,0-35.2c0-12.7,0-25.3,0-38
					c0-21.3-18.1-38.3-39.6-35.7c-11.8,1.4-22.3,8.4-27.7,19c-4.1,8-3.6,16.6-3.6,25.2c0,21.2-28.5,27.5-38.8,9.6
					c-3.3-5.7-2.2-13.4-2.2-19.7c0-9.6-2.2-17.8-8.9-25c-3.8-4.1-9.1-6.8-14.4-8.4c-5-1.5-10.2-0.7-15.1-2.3
					c-7.4-2.4-10-10.2-12.9-16.6c-1.7-3.7-7-4.6-10.3-2.7C14.5,252.7,14,257.1,15.6,260.8L15.6,260.8z"/>
			</g>
		</g>
	</g>
	<g>
		<g>
			<g>
				<path d="M424.8,197c-49.6,0-99.2,0-148.9,0c-6,0-12.1,0.2-18.1-0.1c-6.9-0.3-8-7.5-8-12.8c0-7,0-14,0-21.1c0-7.2,0-14.3,0-21.5
					c0-5.8,0.7-11.2,7.3-13.2c1.8-0.5,4.2-0.2,6-0.2c4,0,8.1,0,12.1,0c49.8,0,99.6,0,149.5,0c7.3,0,9.4,6.3,9.4,12.3
					c0,7.2,0,14.4,0,21.6c0,7.4,0,14.7,0,22.1C434.2,190.5,432.4,196.7,424.8,197c-9.6,0.4-9.7,15.4,0,15c13.4-0.5,22.7-9.9,24.3-23
					c0.5-4.4,0.1-9.1,0.1-13.5c0-12.6,0-25.2,0-37.9c0-12.4-9.5-22.7-21.7-24.2c-2.2-0.3-4.5-0.2-6.7-0.2c-10.1,0-20.2,0-30.4,0
					c-31.5,0-62.9,0-94.4,0c-10.6,0-21.2,0-31.8,0c-1.7,0-3.4,0-5,0c-12.4,0-22.7,9.5-24.2,21.7c-0.6,4.6-0.2,9.3-0.2,14
					c0,8,0,16,0,24c0,4.9,0,9.8,0,14.7c0,11.6,8.3,21.7,19.7,24c6.4,1.3,13.7,0.5,20.2,0.5c13.4,0,26.9,0,40.3,0
					c36.6,0,73.2,0,109.8,0C434.5,212,434.5,197,424.8,197z"/>
			</g>
		</g>
		<g>
			<g>
				<path d="M346.5,489.7c-10.3,0-18.7-6.3-23-15.4c-1.8-3.9-1.8-8.2-1.8-12.3c0-11.4,0-22.8,0-34.2c0-27.2,0-54.4,0-81.7
					c0-0.8,0-1.6,0-2.3c-2.5,2.5-5,5-7.5,7.5c21.5,0,43,0,64.5,0c-2.5-2.5-5-5-7.5-7.5c0,23.2,0,46.4,0,69.5c0,13.9,0,27.8,0,41.7
					c0,3.1,0,6.3,0,9.4c0,7.9-3.3,14.6-9.2,19.8C357.8,488,352,489.6,346.5,489.7c-9.7,0.2-9.7,15.2,0,15
					c21.9-0.5,39.7-18,39.7-40.1c0-9,0-18,0-27c0-29,0-58.1,0-87.1c0-2.2,0-4.5,0-6.7c0-4.1-3.4-7.5-7.5-7.5c-21.5,0-43,0-64.5,0
					c-4.1,0-7.5,3.4-7.5,7.5c0,23.2,0,46.4,0,69.5c0,13.9,0,27.8,0,41.7c0,12,0.2,23.4,7.9,33.6c7.5,10,19.3,16.1,31.9,16.1
					C356.1,504.7,356.1,489.7,346.5,489.7z"/>
			</g>
		</g>
		<g>
			<g>
				<g>
					<path d="M354,343.8c0-11.1-3.4-27,8.9-32.7c7.4-3.4,14.8-6.8,22.2-10.2c28-12.9,55.9-25.7,83.9-38.6
						c7.4-3.4,14.8-6.8,22.2-10.2c9.1-4.2,6.3-19.9,6.3-27.9c0-15.5,0-31,0-46.4c0-3.8,0-7.5,0-11.3c0-8.1-6.9-11.4-13.9-11.4
						c-13.9,0-27.9,0-41.8,0c-9.7,0-9.7,15,0,15c12.4,0,24.9,0,37.3,0c2.1,0,4.3,0,6.4,0c2.8,0-3.1-6.2-3.1-2.7c0,4.8,0,9.5,0,14.3
						c0,15.6,0,31.1,0,46.7c0,4.4,0,8.8,0,13.2c0,2.3,2.9-3.1,1.3-2.4c-0.9,0.4-1.7,0.8-2.6,1.2c-24.2,11.1-48.3,22.2-72.5,33.3
						c-13,6-26,12-39,17.9c-7.2,3.3-14.8,6.1-21,11c-12.3,9.7-9.6,27.5-9.6,41.2C339,353.5,354,353.5,354,343.8L354,343.8z"/>
				</g>
			</g>
		</g>
	</g>
</g>
</svg>
