<?xml version="1.0" ?><svg id="Capa_1" style="enable-background:new 0 0 512 512;" version="1.1" viewBox="0 0 512 512" xml:space="preserve" xmlns="http://www.w3.org/2000/svg" xmlns:xlink="http://www.w3.org/1999/xlink"><style type="text/css">
	.st0{fill:#345298;}
</style><g><path class="st0" d="M382.3,30.6h-65.9V11.5c0-5.4-4.4-9.9-9.9-9.9H195.3c-5.4,0-9.9,4.4-9.9,9.9v19.1h-61.7   c-20,0-36.4,16.3-36.4,36.4v69.6v18.8v316.2c0,22.2,18.1,40.3,40.3,40.3h250.6c22.2,0,40.3-18.1,40.3-40.3V155.4v-18.8V67   C418.6,46.9,402.3,30.6,382.3,30.6z M398.9,471.7c0,11.4-9.3,20.6-20.6,20.6H127.8c-11.4,0-20.6-9.3-20.6-20.6V155.4v-9h225   c5.4,0,9.9-4.4,9.9-9.9c0-5.4-4.4-9.9-9.9-9.9h-225V67c0-9.2,7.5-16.7,16.7-16.7h61.7v15.3c0,5.4,4.4,9.9,9.9,9.9h10.1   c5.4,0,9.9-4.4,9.9-9.9s-4.4-9.9-9.9-9.9l-0.2-34.4h91.5v34.4h-53.4c-5.4,0-9.9,4.4-9.9,9.9s4.4,9.9,9.9,9.9h63.2   c5.4,0,9.9-4.4,9.9-9.9V50.3h65.9c9.2,0,16.7,7.5,16.7,16.7v59.8h-29c-5.4,0-9.9,4.4-9.9,9.9c0,5.4,4.4,9.9,9.9,9.9h29v9V471.7z"/><path class="st0" d="M205.4,210.6h-59.1c-5.4,0-9.9,4.4-9.9,9.9v59.1c0,5.4,4.4,9.9,9.9,9.9h59.1c5.4,0,9.9-4.4,9.9-9.9v-59.1   C215.2,215,210.8,210.6,205.4,210.6z M195.5,269.7h-39.4v-39.4h39.4V269.7z"/><path class="st0" d="M205.4,349.4h-59.1c-5.4,0-9.9,4.4-9.9,9.9v59.1c0,5.4,4.4,9.9,9.9,9.9h59.1c5.4,0,9.9-4.4,9.9-9.9v-59.1   C215.2,353.8,210.8,349.4,205.4,349.4z M195.5,408.4h-39.4v-39.4h39.4V408.4z"/><path class="st0" d="M369.8,240.2h-82.2c-5.4,0-9.9,4.4-9.9,9.9s4.4,9.9,9.9,9.9h82.2c5.4,0,9.9-4.4,9.9-9.9   S375.2,240.2,369.8,240.2z"/><path class="st0" d="M243.3,259.9h12.3c5.4,0,9.9-4.4,9.9-9.9s-4.4-9.9-9.9-9.9h-12.3c-5.4,0-9.9,4.4-9.9,9.9   S237.9,259.9,243.3,259.9z"/><path class="st0" d="M369.8,378.9h-12.1c-5.4,0-9.9,4.4-9.9,9.9s4.4,9.9,9.9,9.9h12.1c5.4,0,9.9-4.4,9.9-9.9   S375.2,378.9,369.8,378.9z"/><path class="st0" d="M322.9,378.9h-79.6c-5.4,0-9.9,4.4-9.9,9.9s4.4,9.9,9.9,9.9h79.6c5.4,0,9.9-4.4,9.9-9.9   S328.4,378.9,322.9,378.9z"/></g></svg>